<?xml version="1.0" encoding="iso-8859-1"?>
<!-- Generator: Adobe Illustrator 19.0.0, SVG Export Plug-In . SVG Version: 6.00 Build 0)  -->
<svg version="1.1" id="Layer_1" xmlns="http://www.w3.org/2000/svg" xmlns:xlink="http://www.w3.org/1999/xlink" x="0px" y="0px"
	 viewBox="0 0 512 512" style="enable-background:new 0 0 512 512;" xml:space="preserve">
<path style="fill:#EFF2FA;" d="M494.345,459.034H17.655C7.904,459.034,0,451.13,0,441.379V70.621
	c0-9.751,7.904-17.655,17.655-17.655h476.69c9.751,0,17.655,7.904,17.655,17.655v370.759
	C512,451.129,504.095,459.034,494.345,459.034z"/>
<path style="fill:#C3E678;" d="M0,105.931h512v-35.31c0-9.751-7.904-17.655-17.655-17.655H17.655C7.904,52.966,0,60.87,0,70.621
	V105.931z"/>
<g>
	<path style="fill:#EBF5AA;" d="M97.103,88.276H26.483c-4.875,0-8.828-3.953-8.828-8.828l0,0c0-4.875,3.953-8.828,8.828-8.828
		h70.621c4.875,0,8.828,3.953,8.828,8.828l0,0C105.931,84.323,101.978,88.276,97.103,88.276z"/>
	<path style="fill:#EBF5AA;" d="M150.069,88.276h-17.655c-4.875,0-8.828-3.953-8.828-8.828l0,0c0-4.875,3.953-8.828,8.828-8.828
		h17.655c4.875,0,8.828,3.953,8.828,8.828l0,0C158.897,84.323,154.944,88.276,150.069,88.276z"/>
	<path style="fill:#EBF5AA;" d="M485.517,88.276h-17.655c-4.875,0-8.828-3.953-8.828-8.828l0,0c0-4.875,3.953-8.828,8.828-8.828
		h17.655c4.875,0,8.828,3.953,8.828,8.828l0,0C494.345,84.323,490.392,88.276,485.517,88.276z"/>
	<path style="fill:#EBF5AA;" d="M432.552,88.276h-17.655c-4.875,0-8.828-3.953-8.828-8.828l0,0c0-4.875,3.953-8.828,8.828-8.828
		h17.655c4.875,0,8.828,3.953,8.828,8.828l0,0C441.379,84.323,437.427,88.276,432.552,88.276z"/>
</g>
<rect y="105.931" style="fill:#D7DEED;" width="512" height="52.966"/>
<g style="opacity:0.97;">
	<path style="fill:#AFB9D2;" d="M52.966,141.241H26.483c-4.875,0-8.828-3.953-8.828-8.828l0,0c0-4.875,3.953-8.828,8.828-8.828
		h26.483c4.875,0,8.828,3.953,8.828,8.828l0,0C61.793,137.289,57.841,141.241,52.966,141.241z"/>
</g>
<path style="fill:#FFD782;" d="M114.759,141.241H88.276c-4.875,0-8.828-3.953-8.828-8.828l0,0c0-4.875,3.953-8.828,8.828-8.828
	h26.483c4.875,0,8.828,3.953,8.828,8.828l0,0C123.586,137.289,119.634,141.241,114.759,141.241z"/>
<g>
	<path style="fill:#B4E1FA;" d="M158.897,141.241h-8.828c-4.875,0-8.828-3.953-8.828-8.828l0,0c0-4.875,3.953-8.828,8.828-8.828
		h8.828c4.875,0,8.828,3.953,8.828,8.828l0,0C167.724,137.289,163.772,141.241,158.897,141.241z"/>
	<path style="fill:#B4E1FA;" d="M203.034,141.241h-8.828c-4.875,0-8.828-3.953-8.828-8.828l0,0c0-4.875,3.953-8.828,8.828-8.828
		h8.828c4.875,0,8.828,3.953,8.828,8.828l0,0C211.862,137.289,207.91,141.241,203.034,141.241z"/>
</g>
<path style="fill:#C7CFE2;" d="M264.828,141.241h-26.483c-4.875,0-8.828-3.953-8.828-8.828l0,0c0-4.875,3.953-8.828,8.828-8.828
	h26.483c4.875,0,8.828,3.953,8.828,8.828l0,0C273.655,137.289,269.703,141.241,264.828,141.241z"/>
<g>
	<path style="fill:#EFF2FA;" d="M317.793,141.241h-17.655c-4.875,0-8.828-3.953-8.828-8.828l0,0c0-4.875,3.953-8.828,8.828-8.828
		h17.655c4.875,0,8.828,3.953,8.828,8.828l0,0C326.621,137.289,322.668,141.241,317.793,141.241z"/>
	<path style="fill:#EFF2FA;" d="M370.759,141.241h-17.655c-4.875,0-8.828-3.953-8.828-8.828l0,0c0-4.875,3.953-8.828,8.828-8.828
		h17.655c4.875,0,8.828,3.953,8.828,8.828l0,0C379.586,137.289,375.634,141.241,370.759,141.241z"/>
</g>
<g>
	<path style="fill:#C7CFE2;" d="M432.552,141.241h-26.483c-4.875,0-8.828-3.953-8.828-8.828l0,0c0-4.875,3.953-8.828,8.828-8.828
		h26.483c4.875,0,8.828,3.953,8.828,8.828l0,0C441.379,137.289,437.427,141.241,432.552,141.241z"/>
	<path style="fill:#C7CFE2;" d="M485.517,141.241h-17.655c-4.875,0-8.828-3.953-8.828-8.828l0,0c0-4.875,3.953-8.828,8.828-8.828
		h17.655c4.875,0,8.828,3.953,8.828,8.828l0,0C494.345,137.289,490.392,141.241,485.517,141.241z"/>
	<rect y="158.897" style="fill:#C7CFE2;" width="512" height="17.655"/>
</g>
<g>
	<path style="fill:#8F96AC;" d="M273.655,220.69h-35.31c-4.875,0-8.828-3.953-8.828-8.828v-8.828c0-4.875,3.953-8.828,8.828-8.828
		h35.31c4.875,0,8.828,3.953,8.828,8.828v8.828C282.483,216.737,278.53,220.69,273.655,220.69z"/>
	<path style="fill:#8F96AC;" d="M132.414,220.69h-35.31c-4.875,0-8.828-3.953-8.828-8.828v-8.828c0-4.875,3.953-8.828,8.828-8.828
		h35.31c4.875,0,8.828,3.953,8.828,8.828v8.828C141.241,216.737,137.289,220.69,132.414,220.69z"/>
</g>
<path style="fill:#D7DEED;" d="M61.793,220.69h-35.31c-4.875,0-8.828-3.953-8.828-8.828v-8.828c0-4.875,3.953-8.828,8.828-8.828
	h35.31c4.875,0,8.828,3.953,8.828,8.828v8.828C70.621,216.737,66.668,220.69,61.793,220.69z"/>
<g>
	<path style="fill:#8F96AC;" d="M203.034,220.69h-35.31c-4.875,0-8.828-3.953-8.828-8.828v-8.828c0-4.875,3.953-8.828,8.828-8.828
		h35.31c4.875,0,8.828,3.953,8.828,8.828v8.828C211.862,216.737,207.91,220.69,203.034,220.69z"/>
	<path style="fill:#8F96AC;" d="M414.897,220.69h-35.31c-4.875,0-8.828-3.953-8.828-8.828v-8.828c0-4.875,3.953-8.828,8.828-8.828
		h35.31c4.875,0,8.828,3.953,8.828,8.828v8.828C423.724,216.737,419.772,220.69,414.897,220.69z"/>
	<path style="fill:#8F96AC;" d="M344.276,220.69h-35.31c-4.875,0-8.828-3.953-8.828-8.828v-8.828c0-4.875,3.953-8.828,8.828-8.828
		h35.31c4.875,0,8.828,3.953,8.828,8.828v8.828C353.103,216.737,349.151,220.69,344.276,220.69z"/>
	<path style="fill:#8F96AC;" d="M485.517,220.69h-35.31c-4.875,0-8.828-3.953-8.828-8.828v-8.828c0-4.875,3.953-8.828,8.828-8.828
		h35.31c4.875,0,8.828,3.953,8.828,8.828v8.828C494.345,216.737,490.392,220.69,485.517,220.69z"/>
</g>
<g>
	<path style="fill:#D7DEED;" d="M273.655,264.828h-35.31c-4.875,0-8.828-3.953-8.828-8.828v-8.828c0-4.875,3.953-8.828,8.828-8.828
		h35.31c4.875,0,8.828,3.953,8.828,8.828V256C282.483,260.875,278.53,264.828,273.655,264.828z"/>
	<path style="fill:#D7DEED;" d="M132.414,264.828h-35.31c-4.875,0-8.828-3.953-8.828-8.828v-8.828c0-4.875,3.953-8.828,8.828-8.828
		h35.31c4.875,0,8.828,3.953,8.828,8.828V256C141.241,260.875,137.289,264.828,132.414,264.828z"/>
</g>
<path style="fill:#C3E678;" d="M61.793,264.828h-35.31c-4.875,0-8.828-3.953-8.828-8.828v-8.828c0-4.875,3.953-8.828,8.828-8.828
	h35.31c4.875,0,8.828,3.953,8.828,8.828V256C70.621,260.875,66.668,264.828,61.793,264.828z"/>
<g>
	<path style="fill:#D7DEED;" d="M203.034,264.828h-35.31c-4.875,0-8.828-3.953-8.828-8.828v-8.828c0-4.875,3.953-8.828,8.828-8.828
		h35.31c4.875,0,8.828,3.953,8.828,8.828V256C211.862,260.875,207.91,264.828,203.034,264.828z"/>
	<path style="fill:#D7DEED;" d="M414.897,264.828h-35.31c-4.875,0-8.828-3.953-8.828-8.828v-8.828c0-4.875,3.953-8.828,8.828-8.828
		h35.31c4.875,0,8.828,3.953,8.828,8.828V256C423.724,260.875,419.772,264.828,414.897,264.828z"/>
	<path style="fill:#D7DEED;" d="M344.276,264.828h-35.31c-4.875,0-8.828-3.953-8.828-8.828v-8.828c0-4.875,3.953-8.828,8.828-8.828
		h35.31c4.875,0,8.828,3.953,8.828,8.828V256C353.103,260.875,349.151,264.828,344.276,264.828z"/>
	<path style="fill:#D7DEED;" d="M485.517,264.828h-35.31c-4.875,0-8.828-3.953-8.828-8.828v-8.828c0-4.875,3.953-8.828,8.828-8.828
		h35.31c4.875,0,8.828,3.953,8.828,8.828V256C494.345,260.875,490.392,264.828,485.517,264.828z"/>
	<path style="fill:#D7DEED;" d="M273.655,308.966h-35.31c-4.875,0-8.828-3.953-8.828-8.828v-8.828c0-4.875,3.953-8.828,8.828-8.828
		h35.31c4.875,0,8.828,3.953,8.828,8.828v8.828C282.483,305.013,278.53,308.966,273.655,308.966z"/>
	<path style="fill:#D7DEED;" d="M132.414,308.966h-35.31c-4.875,0-8.828-3.953-8.828-8.828v-8.828c0-4.875,3.953-8.828,8.828-8.828
		h35.31c4.875,0,8.828,3.953,8.828,8.828v8.828C141.241,305.013,137.289,308.966,132.414,308.966z"/>
</g>
<path style="fill:#C3E678;" d="M61.793,308.966h-35.31c-4.875,0-8.828-3.953-8.828-8.828v-8.828c0-4.875,3.953-8.828,8.828-8.828
	h35.31c4.875,0,8.828,3.953,8.828,8.828v8.828C70.621,305.013,66.668,308.966,61.793,308.966z"/>
<g>
	<path style="fill:#D7DEED;" d="M203.034,308.966h-35.31c-4.875,0-8.828-3.953-8.828-8.828v-8.828c0-4.875,3.953-8.828,8.828-8.828
		h35.31c4.875,0,8.828,3.953,8.828,8.828v8.828C211.862,305.013,207.91,308.966,203.034,308.966z"/>
	<path style="fill:#D7DEED;" d="M414.897,308.966h-35.31c-4.875,0-8.828-3.953-8.828-8.828v-8.828c0-4.875,3.953-8.828,8.828-8.828
		h35.31c4.875,0,8.828,3.953,8.828,8.828v8.828C423.724,305.013,419.772,308.966,414.897,308.966z"/>
	<path style="fill:#D7DEED;" d="M344.276,308.966h-35.31c-4.875,0-8.828-3.953-8.828-8.828v-8.828c0-4.875,3.953-8.828,8.828-8.828
		h35.31c4.875,0,8.828,3.953,8.828,8.828v8.828C353.103,305.013,349.151,308.966,344.276,308.966z"/>
	<path style="fill:#D7DEED;" d="M485.517,308.966h-35.31c-4.875,0-8.828-3.953-8.828-8.828v-8.828c0-4.875,3.953-8.828,8.828-8.828
		h35.31c4.875,0,8.828,3.953,8.828,8.828v8.828C494.345,305.013,490.392,308.966,485.517,308.966z"/>
	<path style="fill:#D7DEED;" d="M273.655,353.103h-35.31c-4.875,0-8.828-3.953-8.828-8.828v-8.828c0-4.875,3.953-8.828,8.828-8.828
		h35.31c4.875,0,8.828,3.953,8.828,8.828v8.828C282.483,349.151,278.53,353.103,273.655,353.103z"/>
	<path style="fill:#D7DEED;" d="M132.414,353.103h-35.31c-4.875,0-8.828-3.953-8.828-8.828v-8.828c0-4.875,3.953-8.828,8.828-8.828
		h35.31c4.875,0,8.828,3.953,8.828,8.828v8.828C141.241,349.151,137.289,353.103,132.414,353.103z"/>
</g>
<path style="fill:#C3E678;" d="M61.793,353.103h-35.31c-4.875,0-8.828-3.953-8.828-8.828v-8.828c0-4.875,3.953-8.828,8.828-8.828
	h35.31c4.875,0,8.828,3.953,8.828,8.828v8.828C70.621,349.151,66.668,353.103,61.793,353.103z"/>
<g>
	<path style="fill:#D7DEED;" d="M203.034,353.103h-35.31c-4.875,0-8.828-3.953-8.828-8.828v-8.828c0-4.875,3.953-8.828,8.828-8.828
		h35.31c4.875,0,8.828,3.953,8.828,8.828v8.828C211.862,349.151,207.91,353.103,203.034,353.103z"/>
	<path style="fill:#D7DEED;" d="M414.897,353.103h-35.31c-4.875,0-8.828-3.953-8.828-8.828v-8.828c0-4.875,3.953-8.828,8.828-8.828
		h35.31c4.875,0,8.828,3.953,8.828,8.828v8.828C423.724,349.151,419.772,353.103,414.897,353.103z"/>
	<path style="fill:#D7DEED;" d="M344.276,353.103h-35.31c-4.875,0-8.828-3.953-8.828-8.828v-8.828c0-4.875,3.953-8.828,8.828-8.828
		h35.31c4.875,0,8.828,3.953,8.828,8.828v8.828C353.103,349.151,349.151,353.103,344.276,353.103z"/>
	<path style="fill:#D7DEED;" d="M485.517,353.103h-35.31c-4.875,0-8.828-3.953-8.828-8.828v-8.828c0-4.875,3.953-8.828,8.828-8.828
		h35.31c4.875,0,8.828,3.953,8.828,8.828v8.828C494.345,349.151,490.392,353.103,485.517,353.103z"/>
	<path style="fill:#D7DEED;" d="M273.655,397.241h-35.31c-4.875,0-8.828-3.953-8.828-8.828v-8.828c0-4.875,3.953-8.828,8.828-8.828
		h35.31c4.875,0,8.828,3.953,8.828,8.828v8.828C282.483,393.289,278.53,397.241,273.655,397.241z"/>
	<path style="fill:#D7DEED;" d="M132.414,397.241h-35.31c-4.875,0-8.828-3.953-8.828-8.828v-8.828c0-4.875,3.953-8.828,8.828-8.828
		h35.31c4.875,0,8.828,3.953,8.828,8.828v8.828C141.241,393.289,137.289,397.241,132.414,397.241z"/>
</g>
<path style="fill:#C3E678;" d="M61.793,397.241h-35.31c-4.875,0-8.828-3.953-8.828-8.828v-8.828c0-4.875,3.953-8.828,8.828-8.828
	h35.31c4.875,0,8.828,3.953,8.828,8.828v8.828C70.621,393.289,66.668,397.241,61.793,397.241z"/>
<g>
	<path style="fill:#D7DEED;" d="M203.034,397.241h-35.31c-4.875,0-8.828-3.953-8.828-8.828v-8.828c0-4.875,3.953-8.828,8.828-8.828
		h35.31c4.875,0,8.828,3.953,8.828,8.828v8.828C211.862,393.289,207.91,397.241,203.034,397.241z"/>
	<path style="fill:#D7DEED;" d="M414.897,397.241h-35.31c-4.875,0-8.828-3.953-8.828-8.828v-8.828c0-4.875,3.953-8.828,8.828-8.828
		h35.31c4.875,0,8.828,3.953,8.828,8.828v8.828C423.724,393.289,419.772,397.241,414.897,397.241z"/>
	<path style="fill:#D7DEED;" d="M344.276,397.241h-35.31c-4.875,0-8.828-3.953-8.828-8.828v-8.828c0-4.875,3.953-8.828,8.828-8.828
		h35.31c4.875,0,8.828,3.953,8.828,8.828v8.828C353.103,393.289,349.151,397.241,344.276,397.241z"/>
	<path style="fill:#D7DEED;" d="M485.517,397.241h-35.31c-4.875,0-8.828-3.953-8.828-8.828v-8.828c0-4.875,3.953-8.828,8.828-8.828
		h35.31c4.875,0,8.828,3.953,8.828,8.828v8.828C494.345,393.289,490.392,397.241,485.517,397.241z"/>
	<path style="fill:#D7DEED;" d="M273.655,441.379h-35.31c-4.875,0-8.828-3.953-8.828-8.828v-8.828c0-4.875,3.953-8.828,8.828-8.828
		h35.31c4.875,0,8.828,3.953,8.828,8.828v8.828C282.483,437.427,278.53,441.379,273.655,441.379z"/>
	<path style="fill:#D7DEED;" d="M132.414,441.379h-35.31c-4.875,0-8.828-3.953-8.828-8.828v-8.828c0-4.875,3.953-8.828,8.828-8.828
		h35.31c4.875,0,8.828,3.953,8.828,8.828v8.828C141.241,437.427,137.289,441.379,132.414,441.379z"/>
</g>
<path style="fill:#C3E678;" d="M61.793,441.379h-35.31c-4.875,0-8.828-3.953-8.828-8.828v-8.828c0-4.875,3.953-8.828,8.828-8.828
	h35.31c4.875,0,8.828,3.953,8.828,8.828v8.828C70.621,437.427,66.668,441.379,61.793,441.379z"/>
<g>
	<path style="fill:#D7DEED;" d="M203.034,441.379h-35.31c-4.875,0-8.828-3.953-8.828-8.828v-8.828c0-4.875,3.953-8.828,8.828-8.828
		h35.31c4.875,0,8.828,3.953,8.828,8.828v8.828C211.862,437.427,207.91,441.379,203.034,441.379z"/>
	<path style="fill:#D7DEED;" d="M414.897,441.379h-35.31c-4.875,0-8.828-3.953-8.828-8.828v-8.828c0-4.875,3.953-8.828,8.828-8.828
		h35.31c4.875,0,8.828,3.953,8.828,8.828v8.828C423.724,437.427,419.772,441.379,414.897,441.379z"/>
	<path style="fill:#D7DEED;" d="M344.276,441.379h-35.31c-4.875,0-8.828-3.953-8.828-8.828v-8.828c0-4.875,3.953-8.828,8.828-8.828
		h35.31c4.875,0,8.828,3.953,8.828,8.828v8.828C353.103,437.427,349.151,441.379,344.276,441.379z"/>
	<path style="fill:#D7DEED;" d="M485.517,441.379h-35.31c-4.875,0-8.828-3.953-8.828-8.828v-8.828c0-4.875,3.953-8.828,8.828-8.828
		h35.31c4.875,0,8.828,3.953,8.828,8.828v8.828C494.345,437.427,490.392,441.379,485.517,441.379z"/>
</g>
<g>
</g>
<g>
</g>
<g>
</g>
<g>
</g>
<g>
</g>
<g>
</g>
<g>
</g>
<g>
</g>
<g>
</g>
<g>
</g>
<g>
</g>
<g>
</g>
<g>
</g>
<g>
</g>
<g>
</g>
</svg>
