<svg xmlns="http://www.w3.org/2000/svg" viewBox="0 0 58 58"><circle cx="29" cy="29" r="29" fill="#556080"/><path d="M25.556 5.568c-2.143-.412-3.125-2.916-1.835-4.675l.342-.466a28.828 28.828 0 0 0-8.133 2.692A3.996 3.996 0 0 1 19 7a4 4 0 1 1-7.92-.792c1.11-.874-2.167 1.598-4.375 4.249.457.91.465 2.041-.182 2.994l-.825 1.217 1.958 1.958 1.236-.906c1.76-1.29 4.263-.308 4.675 1.835L13.846 19h2.769l.164-1.066c.339-2.204 2.896-3.263 4.694-1.944l.869.637 1.958-1.958-.825-1.217c-1.224-1.807-.148-4.272 2.008-4.604L27 8.615V5.846l-1.444-.278z" fill="#26b99a"/><path d="M49 44.5a5.5 5.5 0 0 1 7.122-5.256 28.865 28.865 0 0 0 1.418-5.122 3.66 3.66 0 0 1-1.229-2.228L56.019 30h-3.462l-.448 2.331c-.504 2.619-3.522 3.87-5.731 2.374l-1.965-1.331-2.448 2.448 1.133 1.545c1.613 2.199.385 5.329-2.294 5.844L39 43.558v3.462l1.894.291c2.696.415 4.04 3.497 2.51 5.755l-1.031 1.521.095.095a29.096 29.096 0 0 0 8.108-6.33A5.484 5.484 0 0 1 49 44.5z" fill="#424a60"/><path d="M52.899 23.485c-.011-.011-.026-.014-.038-.025a12.962 12.962 0 0 0 2.854-5.761A29.105 29.105 0 0 0 40.3 2.284a12.952 12.952 0 0 0-5.761 2.854c-.01-.011-.014-.026-.025-.038L33.1 3.686A.999.999 0 1 0 31.686 5.1L33.1 6.514c.012.012.029.016.041.027a12.927 12.927 0 0 0-3.098 7.467c-.015 0-.028-.008-.043-.008h-2a1 1 0 1 0 0 2h2c.018 0 .032-.009.05-.01a12.928 12.928 0 0 0 3.091 7.469c-.012.011-.028.015-.04.027L31.687 24.9a.999.999 0 1 0 1.414 1.414l1.414-1.414c.012-.012.016-.028.027-.04a12.932 12.932 0 0 0 7.469 3.091c-.002.017-.011.031-.011.049v2a1 1 0 1 0 2 0v-2c0-.016-.008-.028-.009-.044a12.927 12.927 0 0 0 7.467-3.098c.011.012.015.029.027.041l1.414 1.414a.997.997 0 0 0 1.414 0 .999.999 0 0 0 0-1.414l-1.414-1.414zM43 18a3 3 0 1 1 0-6 3 3 0 0 1 0 6z" fill="#e7eced"/><circle cx="18" cy="40" r="3" fill="#e7eced"/><path d="M36.406 47.086l-2.473-1.099c-.007-.003-.014-.002-.02-.004a16.975 16.975 0 0 0 .262-11.205c.007-.002.013-.001.02-.004l2.167-.843a1 1 0 1 0-.724-1.863l-2.167.843c-.01.004-.016.012-.026.016a17.044 17.044 0 0 0-7.646-8.022c.005-.01.012-.016.017-.026l1.099-2.473a1 1 0 1 0-1.828-.812l-1.099 2.473c-.005.012-.003.024-.008.036A16.909 16.909 0 0 0 18 23c-1.825 0-3.574.303-5.22.835-.003-.01-.001-.02-.005-.03l-.843-2.168a1 1 0 1 0-1.864.725l.843 2.168c.003.009.01.015.014.024a17.036 17.036 0 0 0-8.031 7.717c-.015-.007-.024-.021-.04-.028l-2.129-.937a.982.982 0 0 0-.629-.041c.053.689.124 1.373.225 2.048l1.727.76c.014.006.03.004.044.009a16.92 16.92 0 0 0-.866 3.27v.001a28.819 28.819 0 0 0 1.231 3.331l.066.146c.217.486.448.964.691 1.436l.077.151a28.968 28.968 0 0 0 2.8 4.355l.124.157c.329.417.668.826 1.019 1.224l.071.082c.769.867 1.59 1.688 2.457 2.457l.082.071c.398.351.807.69 1.224 1.019l.157.124a28.968 28.968 0 0 0 4.355 2.8l.151.078c.471.243.95.473 1.435.69l.146.066c1.078.475 2.189.888 3.331 1.231h.002a16.889 16.889 0 0 0 2.51-.607c.006.017.002.035.009.052l.493 1.282c.748.139 1.505.256 2.272.336l-.896-2.334c-.005-.012-.015-.02-.02-.032a17.046 17.046 0 0 0 8.079-7.674c.011.006.018.016.029.021l2.473 1.099a1.003 1.003 0 0 0 1.321-.508 1.002 1.002 0 0 0-.509-1.32zM18 47a7 7 0 1 1 0-14 7 7 0 0 1 0 14z" fill="#ebba16"/></svg>