<svg xmlns="http://www.w3.org/2000/svg" viewBox="0 0 512.001 512.001"><path d="M374.995 512H6.009a4.233 4.233 0 0 1-4.233-4.233v-5.412a9.645 9.645 0 0 1 9.645-9.645h363.572a9.645 9.645 0 0 1 9.645 9.645c.001 5.326-4.318 9.645-9.643 9.645z" fill="#c2cece"/><linearGradient id="a" gradientUnits="userSpaceOnUse" x1="122.939" y1="31.669" x2="-31.151" y2="185.759" gradientTransform="matrix(1.0667 0 0 -1.0667 3.267 557.534)"><stop offset="0" stop-color="#ffcf95"/><stop offset=".054" stop-color="#fed19a"/><stop offset="1" stop-color="#e8efee"/></linearGradient><path d="M120.736 391.264L70.42 340.947l-16.864 16.864a46.15 46.15 0 0 0-11.2 18.19L.337 503.464c-1.669 5.062 3.137 9.869 8.199 8.199l127.462-42.018a46.17 46.17 0 0 0 18.19-11.2l16.864-16.864-50.316-50.317z" fill="url(#a)"/><linearGradient id="b" gradientUnits="userSpaceOnUse" x1="75.672" y1="82.269" x2="83.672" y2="59.869" gradientTransform="matrix(1.0667 0 0 -1.0667 3.267 557.534)"><stop offset="0" stop-color="#c69c6d" stop-opacity="0"/><stop offset="1" stop-color="#754c24"/></linearGradient><path d="M154.189 435.721a46.15 46.15 0 0 1-18.19 11.2L8.537 488.939a6.43 6.43 0 0 1-3.467.17L.337 503.464c-1.669 5.062 3.137 9.869 8.199 8.199l127.462-42.018a46.17 46.17 0 0 0 18.19-11.2l16.864-16.864-11.362-11.362-5.501 5.502z" fill="url(#b)"/><linearGradient id="c" gradientUnits="userSpaceOnUse" x1="286.577" y1="208.287" x2="203.087" y2="291.777" gradientTransform="matrix(1.0667 0 0 -1.0667 3.267 557.534)"><stop offset="0" stop-color="#ff9102"/><stop offset="1" stop-color="#ffc200"/></linearGradient><path d="M150.963 461.671c4.562-4.562 6.844-10.55 6.844-16.539a23.302 23.302 0 0 0-6.844-16.513l-.493-.493c-5.495-5.495-13.039-7.674-20.169-6.559-1.854.299-3.578-.363-4.77-1.555a5.467 5.467 0 0 1-1.555-4.743c-.013-.013 0-.026 0-.026.078-.466.129-.933.181-1.4.013-.246.038-.48.052-.725a23.302 23.302 0 0 0-6.792-18.043l-.493-.493c-.285-.285-.583-.557-.881-.83a18.585 18.585 0 0 0-.765-.661c-.402-.35-.817-.661-1.245-.959a13.493 13.493 0 0 0-.7-.493c-.337-.234-.7-.466-1.062-.674-.35-.194-.687-.375-1.024-.557a16.64 16.64 0 0 0-1.361-.661 21.03 21.03 0 0 0-1.14-.467c-.35-.143-.713-.272-1.089-.388a22.952 22.952 0 0 0-2.826-.725 16.72 16.72 0 0 0-1.335-.221 16.27 16.27 0 0 0-1.348-.129 16.029 16.029 0 0 0-1.361-.065 15.196 15.196 0 0 0-1.335.013c-.921.038-1.802.116-2.697.259-1.854.299-3.578-.363-4.77-1.555-1.193-1.193-1.854-2.916-1.555-4.77a23.07 23.07 0 0 0 .285-3.655 23.302 23.302 0 0 0-6.844-16.513l-.493-.493c-9.125-9.125-23.927-9.125-33.052 0l284.299-284.3 100.634 100.634-284.296 284.299z" fill="url(#c)"/><linearGradient id="d" gradientUnits="userSpaceOnUse" x1="212.036" y1="290.436" x2="243.826" y2="258.646" gradientTransform="matrix(1.0667 0 0 -1.0667 3.267 557.534)"><stop offset="0" stop-color="#ffcf95"/><stop offset=".427" stop-color="#ffc954"/><stop offset="1" stop-color="#ffc200"/></linearGradient><path d="M401.717 143.828L125.532 420.013a5.467 5.467 0 0 1-1.555-4.743c-.013-.013 0-.026 0-.026.078-.466.129-.933.181-1.399.013-.246.038-.48.052-.725a23.302 23.302 0 0 0-6.792-18.043l-.493-.493c-.285-.285-.583-.557-.881-.83a18.585 18.585 0 0 0-.765-.661c-.402-.35-.817-.661-1.245-.959a11.957 11.957 0 0 0-.7-.493c-.337-.234-.7-.466-1.062-.674-.337-.181-.674-.389-1.024-.557a16.64 16.64 0 0 0-1.361-.661 21.03 21.03 0 0 0-1.14-.467c-.35-.143-.713-.272-1.089-.388a22.952 22.952 0 0 0-2.826-.725 20.418 20.418 0 0 0-1.335-.221 21.556 21.556 0 0 0-1.348-.129 11.645 11.645 0 0 0-1.361-.065c-.453-.013-.908 0-1.335.013-.921.038-1.802.116-2.697.259-1.854.299-3.578-.363-4.77-1.555l276.185-276.185 33.546 33.542z" fill="url(#d)"/><linearGradient id="e" gradientUnits="userSpaceOnUse" x1="187.898" y1="306.968" x2="208.518" y2="286.348" gradientTransform="matrix(1.0667 0 0 -1.0667 3.267 557.534)"><stop offset="0" stop-color="#ffcf95"/><stop offset=".427" stop-color="#ffc954"/><stop offset="1" stop-color="#ffc200"/></linearGradient><path d="M334.628 76.739L50.329 361.038c9.125-9.125 23.927-9.125 33.052 0l.493.493a23.302 23.302 0 0 1 6.844 16.513c0 1.218-.091 2.45-.285 3.655-.298 1.854.363 3.578 1.555 4.77l276.185-276.185-33.545-33.545z" fill="url(#e)"/><linearGradient id="f" gradientUnits="userSpaceOnUse" x1="432.344" y1="478.1" x2="397.404" y2="443.152" gradientTransform="matrix(1.0667 0 0 -1.0667 3.267 557.534)"><stop offset="0" stop-color="#d63305"/><stop offset=".366" stop-color="#cf3004"/><stop offset=".899" stop-color="#bc2602"/><stop offset="1" stop-color="#b72401"/></linearGradient><path d="M469.671 142.965L369.035 42.33l31.523-31.523c14.409-14.409 37.769-14.409 52.177 0l48.459 48.459c14.409 14.409 14.409 37.769 0 52.177l-31.523 31.522z" fill="url(#f)"/><linearGradient id="g" gradientUnits="userSpaceOnUse" x1="462.63" y1="417.3" x2="444.26" y2="435.66" gradientTransform="matrix(1.0667 0 0 -1.0667 3.267 557.534)"><stop offset="0" stop-color="#960000"/><stop offset=".331" stop-color="#9c0700" stop-opacity=".669"/><stop offset=".812" stop-color="#ae1a01" stop-opacity=".188"/><stop offset="1" stop-color="#b72401" stop-opacity="0"/></linearGradient><path d="M436.309 109.603l33.362 33.362 31.524-31.524c14.407-14.407 14.407-37.767 0-52.176l-7.275-7.275-57.611 57.613z" fill="url(#g)"/><linearGradient id="h" gradientUnits="userSpaceOnUse" x1="393.86" y1="439.596" x2="381.1" y2="426.846" gradientTransform="matrix(1.0667 0 0 -1.0667 3.267 557.534)"><stop offset="0" stop-color="#fff"/><stop offset="1" stop-color="#e8efee"/></linearGradient><path fill="url(#h)" d="M474.17 138.466L373.534 37.831l-38.913 38.913 100.636 100.635z"/><linearGradient id="i" gradientUnits="userSpaceOnUse" x1="367.528" y1="413.278" x2="359.218" y2="404.968" gradientTransform="matrix(1.0667 0 0 -1.0667 3.267 557.534)"><stop offset="0" stop-color="#fff"/><stop offset="1" stop-color="#e8efee"/></linearGradient><path fill="url(#i)" d="M448.228 164.409L347.592 63.773l-12.971 12.971 100.636 100.635z"/><linearGradient id="j" gradientUnits="userSpaceOnUse" x1="339.268" y1="385.018" x2="360.748" y2="406.498" gradientTransform="matrix(1.0667 0 0 -1.0667 3.267 557.534)"><stop offset="0" stop-color="#ffc200" stop-opacity="0"/><stop offset=".203" stop-color="#fb0" stop-opacity=".203"/><stop offset=".499" stop-color="#ffa700" stop-opacity=".499"/><stop offset=".852" stop-color="#f80" stop-opacity=".852"/><stop offset="1" stop-color="#ff7800"/></linearGradient><path fill="url(#j)" d="M418.631 194.004L317.995 93.369l16.626-16.625 100.636 100.635z"/><linearGradient id="k" gradientUnits="userSpaceOnUse" x1="381.296" y1="427.05" x2="370.356" y2="416.1" gradientTransform="matrix(1.0667 0 0 -1.0667 3.267 557.534)"><stop offset="0" stop-color="#fff"/><stop offset="1" stop-color="#e8efee"/></linearGradient><path fill="url(#k)" d="M461.199 151.437L360.563 50.801l-12.971 12.972 100.636 100.636z"/><linearGradient id="l" gradientUnits="userSpaceOnUse" x1="19.923" y1="65.672" x2="-.116" y2="45.642" gradientTransform="matrix(1.0667 0 0 -1.0667 3.267 557.534)"><stop offset="0" stop-color="#363f3e"/><stop offset="1" stop-color="#303033"/></linearGradient><path d="M10.981 471.179L.339 503.464c-1.669 5.062 3.137 9.869 8.199 8.199l32.285-10.642-29.842-29.842z" fill="url(#l)"/><linearGradient id="m" gradientUnits="userSpaceOnUse" x1="403.984" y1="393.884" x2="428.654" y2="369.204" gradientTransform="matrix(1.0667 0 0 -1.0667 3.267 557.534)"><stop offset="0" stop-color="#c2cece" stop-opacity="0"/><stop offset=".179" stop-color="#afbcbc" stop-opacity=".179"/><stop offset="1" stop-color="#5b6a6a"/></linearGradient><path fill="url(#m)" d="M474.17 138.466l-33.362-33.362-38.913 38.913 33.362 33.362z"/><linearGradient id="n" gradientUnits="userSpaceOnUse" x1="346.558" y1="451.308" x2="371.228" y2="426.638" gradientTransform="matrix(1.0667 0 0 -1.0667 3.267 557.534)"><stop offset="0" stop-color="#c2cece" stop-opacity="0"/><stop offset=".55" stop-color="#c2cece"/><stop offset="1" stop-color="#c2cece" stop-opacity="0"/></linearGradient><path fill="url(#n)" d="M423.15 87.447l-33.362-33.363-38.913 38.913 33.362 33.363z"/></svg>