<svg xmlns="http://www.w3.org/2000/svg" viewBox="0 0 512 512"><path d="M494.345 459.034H17.655C7.904 459.034 0 451.13 0 441.379V70.621c0-9.751 7.904-17.655 17.655-17.655h476.69c9.751 0 17.655 7.904 17.655 17.655V441.38c0 9.749-7.905 17.654-17.655 17.654z" fill="#eff2fa"/><path d="M0 105.931h512v-35.31c0-9.751-7.904-17.655-17.655-17.655H17.655C7.904 52.966 0 60.87 0 70.621v35.31z" fill="#c3e678"/><path d="M97.103 88.276h-70.62a8.829 8.829 0 0 1 0-17.656h70.621a8.829 8.829 0 0 1 8.828 8.828 8.83 8.83 0 0 1-8.829 8.828zm52.966 0h-17.655a8.829 8.829 0 0 1 0-17.656h17.655a8.829 8.829 0 0 1 0 17.656zm335.448 0h-17.655a8.829 8.829 0 0 1 0-17.656h17.655a8.829 8.829 0 0 1 0 17.656zm-52.965 0h-17.655a8.829 8.829 0 0 1 0-17.656h17.655a8.829 8.829 0 0 1 8.828 8.828 8.83 8.83 0 0 1-8.828 8.828z" fill="#ebf5aa"/><path fill="#d7deed" d="M0 105.931h512v52.966H0z"/><path d="M52.966 141.241H26.483a8.829 8.829 0 0 1 0-17.656h26.483a8.829 8.829 0 0 1 0 17.656z" fill="#afb9d2" opacity=".97"/><path d="M114.759 141.241H88.276a8.829 8.829 0 0 1 0-17.656h26.483a8.829 8.829 0 0 1 0 17.656z" fill="#ffd782"/><path d="M158.897 141.241h-8.828a8.829 8.829 0 0 1 0-17.656h8.828a8.829 8.829 0 0 1 0 17.656zm44.137 0h-8.828a8.829 8.829 0 0 1 0-17.656h8.828a8.829 8.829 0 0 1 8.828 8.828 8.827 8.827 0 0 1-8.828 8.828z" fill="#b4e1fa"/><path d="M264.828 141.241h-26.483a8.829 8.829 0 0 1 0-17.656h26.483a8.829 8.829 0 0 1 0 17.656z" fill="#c7cfe2"/><path d="M317.793 141.241h-17.655a8.829 8.829 0 0 1 0-17.656h17.655a8.828 8.828 0 0 1 0 17.656zm52.966 0h-17.655a8.829 8.829 0 0 1 0-17.656h17.655a8.829 8.829 0 0 1 0 17.656z" fill="#eff2fa"/><path d="M432.552 141.241h-26.483a8.829 8.829 0 0 1 0-17.656h26.483a8.829 8.829 0 0 1 0 17.656zm52.965 0h-17.655a8.829 8.829 0 0 1 0-17.656h17.655a8.828 8.828 0 0 1 0 17.656zM0 158.897h512v17.655H0z" fill="#c7cfe2"/><path d="M273.655 220.69h-35.31a8.829 8.829 0 0 1-8.828-8.828v-8.828a8.829 8.829 0 0 1 8.828-8.828h35.31a8.829 8.829 0 0 1 8.828 8.828v8.828a8.829 8.829 0 0 1-8.828 8.828zm-141.241 0h-35.31a8.829 8.829 0 0 1-8.828-8.828v-8.828a8.829 8.829 0 0 1 8.828-8.828h35.31a8.829 8.829 0 0 1 8.828 8.828v8.828a8.83 8.83 0 0 1-8.828 8.828z" fill="#8f96ac"/><path d="M61.793 220.69h-35.31a8.829 8.829 0 0 1-8.828-8.828v-8.828a8.829 8.829 0 0 1 8.828-8.828h35.31a8.829 8.829 0 0 1 8.828 8.828v8.828a8.829 8.829 0 0 1-8.828 8.828z" fill="#d7deed"/><path d="M203.034 220.69h-35.31a8.829 8.829 0 0 1-8.828-8.828v-8.828a8.829 8.829 0 0 1 8.828-8.828h35.31a8.829 8.829 0 0 1 8.828 8.828v8.828a8.828 8.828 0 0 1-8.828 8.828zm211.863 0h-35.31a8.829 8.829 0 0 1-8.828-8.828v-8.828a8.829 8.829 0 0 1 8.828-8.828h35.31a8.829 8.829 0 0 1 8.828 8.828v8.828a8.83 8.83 0 0 1-8.828 8.828zm-70.621 0h-35.31a8.829 8.829 0 0 1-8.828-8.828v-8.828a8.829 8.829 0 0 1 8.828-8.828h35.31a8.829 8.829 0 0 1 8.828 8.828v8.828a8.83 8.83 0 0 1-8.828 8.828zm141.241 0h-35.31a8.829 8.829 0 0 1-8.828-8.828v-8.828a8.829 8.829 0 0 1 8.828-8.828h35.31a8.829 8.829 0 0 1 8.828 8.828v8.828a8.829 8.829 0 0 1-8.828 8.828z" fill="#8f96ac"/><path d="M273.655 264.828h-35.31a8.829 8.829 0 0 1-8.828-8.828v-8.828a8.829 8.829 0 0 1 8.828-8.828h35.31a8.829 8.829 0 0 1 8.828 8.828V256a8.829 8.829 0 0 1-8.828 8.828zm-141.241 0h-35.31A8.829 8.829 0 0 1 88.276 256v-8.828a8.829 8.829 0 0 1 8.828-8.828h35.31a8.829 8.829 0 0 1 8.828 8.828V256a8.83 8.83 0 0 1-8.828 8.828z" fill="#d7deed"/><path d="M61.793 264.828h-35.31A8.829 8.829 0 0 1 17.655 256v-8.828a8.829 8.829 0 0 1 8.828-8.828h35.31a8.829 8.829 0 0 1 8.828 8.828V256a8.829 8.829 0 0 1-8.828 8.828z" fill="#c3e678"/><path d="M203.034 264.828h-35.31a8.829 8.829 0 0 1-8.828-8.828v-8.828a8.829 8.829 0 0 1 8.828-8.828h35.31a8.829 8.829 0 0 1 8.828 8.828V256a8.828 8.828 0 0 1-8.828 8.828zm211.863 0h-35.31a8.829 8.829 0 0 1-8.828-8.828v-8.828a8.829 8.829 0 0 1 8.828-8.828h35.31a8.829 8.829 0 0 1 8.828 8.828V256a8.83 8.83 0 0 1-8.828 8.828zm-70.621 0h-35.31a8.829 8.829 0 0 1-8.828-8.828v-8.828a8.829 8.829 0 0 1 8.828-8.828h35.31a8.829 8.829 0 0 1 8.828 8.828V256a8.83 8.83 0 0 1-8.828 8.828zm141.241 0h-35.31a8.829 8.829 0 0 1-8.828-8.828v-8.828a8.829 8.829 0 0 1 8.828-8.828h35.31a8.829 8.829 0 0 1 8.828 8.828V256a8.829 8.829 0 0 1-8.828 8.828zm-211.862 44.138h-35.31a8.829 8.829 0 0 1-8.828-8.828v-8.828a8.829 8.829 0 0 1 8.828-8.828h35.31a8.829 8.829 0 0 1 8.828 8.828v8.828a8.829 8.829 0 0 1-8.828 8.828zm-141.241 0h-35.31a8.829 8.829 0 0 1-8.828-8.828v-8.828a8.829 8.829 0 0 1 8.828-8.828h35.31a8.829 8.829 0 0 1 8.828 8.828v8.828a8.83 8.83 0 0 1-8.828 8.828z" fill="#d7deed"/><path d="M61.793 308.966h-35.31a8.829 8.829 0 0 1-8.828-8.828v-8.828a8.829 8.829 0 0 1 8.828-8.828h35.31a8.829 8.829 0 0 1 8.828 8.828v8.828a8.829 8.829 0 0 1-8.828 8.828z" fill="#c3e678"/><path d="M203.034 308.966h-35.31a8.829 8.829 0 0 1-8.828-8.828v-8.828a8.829 8.829 0 0 1 8.828-8.828h35.31a8.829 8.829 0 0 1 8.828 8.828v8.828a8.828 8.828 0 0 1-8.828 8.828zm211.863 0h-35.31a8.829 8.829 0 0 1-8.828-8.828v-8.828a8.829 8.829 0 0 1 8.828-8.828h35.31a8.829 8.829 0 0 1 8.828 8.828v8.828a8.83 8.83 0 0 1-8.828 8.828zm-70.621 0h-35.31a8.829 8.829 0 0 1-8.828-8.828v-8.828a8.829 8.829 0 0 1 8.828-8.828h35.31a8.829 8.829 0 0 1 8.828 8.828v8.828a8.83 8.83 0 0 1-8.828 8.828zm141.241 0h-35.31a8.829 8.829 0 0 1-8.828-8.828v-8.828a8.829 8.829 0 0 1 8.828-8.828h35.31a8.829 8.829 0 0 1 8.828 8.828v8.828a8.829 8.829 0 0 1-8.828 8.828zm-211.862 44.137h-35.31a8.829 8.829 0 0 1-8.828-8.828v-8.828a8.829 8.829 0 0 1 8.828-8.828h35.31a8.829 8.829 0 0 1 8.828 8.828v8.828a8.828 8.828 0 0 1-8.828 8.828zm-141.241 0h-35.31a8.829 8.829 0 0 1-8.828-8.828v-8.828a8.829 8.829 0 0 1 8.828-8.828h35.31a8.829 8.829 0 0 1 8.828 8.828v8.828a8.829 8.829 0 0 1-8.828 8.828z" fill="#d7deed"/><path d="M61.793 353.103h-35.31a8.829 8.829 0 0 1-8.828-8.828v-8.828a8.829 8.829 0 0 1 8.828-8.828h35.31a8.829 8.829 0 0 1 8.828 8.828v8.828a8.828 8.828 0 0 1-8.828 8.828z" fill="#c3e678"/><path d="M203.034 353.103h-35.31a8.829 8.829 0 0 1-8.828-8.828v-8.828a8.829 8.829 0 0 1 8.828-8.828h35.31a8.829 8.829 0 0 1 8.828 8.828v8.828a8.827 8.827 0 0 1-8.828 8.828zm211.863 0h-35.31a8.829 8.829 0 0 1-8.828-8.828v-8.828a8.829 8.829 0 0 1 8.828-8.828h35.31a8.829 8.829 0 0 1 8.828 8.828v8.828a8.829 8.829 0 0 1-8.828 8.828zm-70.621 0h-35.31a8.829 8.829 0 0 1-8.828-8.828v-8.828a8.829 8.829 0 0 1 8.828-8.828h35.31a8.829 8.829 0 0 1 8.828 8.828v8.828a8.829 8.829 0 0 1-8.828 8.828zm141.241 0h-35.31a8.829 8.829 0 0 1-8.828-8.828v-8.828a8.829 8.829 0 0 1 8.828-8.828h35.31a8.829 8.829 0 0 1 8.828 8.828v8.828a8.828 8.828 0 0 1-8.828 8.828zm-211.862 44.138h-35.31a8.829 8.829 0 0 1-8.828-8.828v-8.828a8.829 8.829 0 0 1 8.828-8.828h35.31a8.829 8.829 0 0 1 8.828 8.828v8.828a8.828 8.828 0 0 1-8.828 8.828zm-141.241 0h-35.31a8.829 8.829 0 0 1-8.828-8.828v-8.828a8.829 8.829 0 0 1 8.828-8.828h35.31a8.829 8.829 0 0 1 8.828 8.828v8.828a8.829 8.829 0 0 1-8.828 8.828z" fill="#d7deed"/><path d="M61.793 397.241h-35.31a8.829 8.829 0 0 1-8.828-8.828v-8.828a8.829 8.829 0 0 1 8.828-8.828h35.31a8.829 8.829 0 0 1 8.828 8.828v8.828a8.828 8.828 0 0 1-8.828 8.828z" fill="#c3e678"/><path d="M203.034 397.241h-35.31a8.829 8.829 0 0 1-8.828-8.828v-8.828a8.829 8.829 0 0 1 8.828-8.828h35.31a8.829 8.829 0 0 1 8.828 8.828v8.828a8.827 8.827 0 0 1-8.828 8.828zm211.863 0h-35.31a8.829 8.829 0 0 1-8.828-8.828v-8.828a8.829 8.829 0 0 1 8.828-8.828h35.31a8.829 8.829 0 0 1 8.828 8.828v8.828a8.829 8.829 0 0 1-8.828 8.828zm-70.621 0h-35.31a8.829 8.829 0 0 1-8.828-8.828v-8.828a8.829 8.829 0 0 1 8.828-8.828h35.31a8.829 8.829 0 0 1 8.828 8.828v8.828a8.829 8.829 0 0 1-8.828 8.828zm141.241 0h-35.31a8.829 8.829 0 0 1-8.828-8.828v-8.828a8.829 8.829 0 0 1 8.828-8.828h35.31a8.829 8.829 0 0 1 8.828 8.828v8.828a8.828 8.828 0 0 1-8.828 8.828zm-211.862 44.138h-35.31a8.829 8.829 0 0 1-8.828-8.828v-8.828a8.829 8.829 0 0 1 8.828-8.828h35.31a8.829 8.829 0 0 1 8.828 8.828v8.828a8.828 8.828 0 0 1-8.828 8.828zm-141.241 0h-35.31a8.829 8.829 0 0 1-8.828-8.828v-8.828a8.829 8.829 0 0 1 8.828-8.828h35.31a8.829 8.829 0 0 1 8.828 8.828v8.828a8.829 8.829 0 0 1-8.828 8.828z" fill="#d7deed"/><path d="M61.793 441.379h-35.31a8.829 8.829 0 0 1-8.828-8.828v-8.828a8.829 8.829 0 0 1 8.828-8.828h35.31a8.829 8.829 0 0 1 8.828 8.828v8.828a8.828 8.828 0 0 1-8.828 8.828z" fill="#c3e678"/><path d="M203.034 441.379h-35.31a8.829 8.829 0 0 1-8.828-8.828v-8.828a8.829 8.829 0 0 1 8.828-8.828h35.31a8.829 8.829 0 0 1 8.828 8.828v8.828a8.827 8.827 0 0 1-8.828 8.828zm211.863 0h-35.31a8.829 8.829 0 0 1-8.828-8.828v-8.828a8.829 8.829 0 0 1 8.828-8.828h35.31a8.829 8.829 0 0 1 8.828 8.828v8.828a8.829 8.829 0 0 1-8.828 8.828zm-70.621 0h-35.31a8.829 8.829 0 0 1-8.828-8.828v-8.828a8.829 8.829 0 0 1 8.828-8.828h35.31a8.829 8.829 0 0 1 8.828 8.828v8.828a8.829 8.829 0 0 1-8.828 8.828zm141.241 0h-35.31a8.829 8.829 0 0 1-8.828-8.828v-8.828a8.829 8.829 0 0 1 8.828-8.828h35.31a8.829 8.829 0 0 1 8.828 8.828v8.828a8.828 8.828 0 0 1-8.828 8.828z" fill="#d7deed"/></svg>